PathFileType	4	(X/Y/Z)	Patient5_TMGait_0pt45_1_right_07.trc.trc
DataRate	CameraRate	NumFrames	NumMarkers	Units	OrigDataRate	OrigDataStartFrame	OrigNumFrames
59.071729957806	59.071729957806	4	32	mm	59.071729957806	36	       141
Frame#	Time	R.ASIS			L.ASIS			Chest			R.Shoulder			Neck			L.Shoulder			L.Elbow			L.Wrist			R.Elbow			R.Wrist			L.Thigh.Superior			L.Thigh.Lateral			L.Thigh.Inferior			L.Patella			L.Shank.Superior			L.Shank.Lateral			L.Shank.Inferior			L.Heel			L.Midfoot.Lateral			L.Midfoot.Superior			L.Toe			R.Thigh.Superior			R.Thigh.Lateral			R.Thigh.Inferior			R.Patella			R.Shank.Superior			R.Shank.Lateral			R.Shank.Inferior			R.Heel			R.Midfoot.Lateral			R.Midfoot.Superior			R.Toe			
		X1	Y1	Z1	X2	Y2	Z2	X3	Y3	Z3	X4	Y4	Z4	X5	Y5	Z5	X6	Y6	Z6	X7	Y7	Z7	X8	Y8	Z8	X9	Y9	Z9	X10	Y10	Z10	X11	Y11	Z11	X12	Y12	Z12	X13	Y13	Z13	X14	Y14	Z14	X15	Y15	Z15	X16	Y16	Z16	X17	Y17	Z17	X18	Y18	Z18	X19	Y19	Z19	X20	Y20	Z20	X21	Y21	Z21	X22	Y22	Z22	X23	Y23	Z23	X24	Y24	Z24	X25	Y25	Z25	X26	Y26	Z26	X27	Y27	Z27	X28	Y28	Z28	X29	Y29	Z29	X30	Y30	Z30	X31	Y31	Z31	X32	Y32	Z32	

36	11.762500000000	1051.562279592879	972.619439545599	584.263856956923	1031.435432549502	957.119779178422	344.048112651910	1103.857852733220	1432.045832144477	493.118723375972	1007.946007924393	1485.374644075234	665.317408445430	976.782780531070	1554.701646944909	485.640413387280	1035.162526057145	1508.882505425321	301.331354059764	936.382700164858	1204.852664591788	158.736797562286	1030.964352158121	931.663778729855	137.556650153068	936.937162733475	1160.227195857665	796.449144735142	1154.559953065337	984.839950329526	718.707324468727	1049.921805110019	733.779802858600	314.213616264656	974.336200223544	667.988721750051	270.563674509658	1052.178586913384	603.446617798108	318.567491723376	1034.826051604197	460.670567209403	306.965267762956	934.644111874766	387.371162577569	332.575721493479	834.830123073933	375.431061061706	260.562130024217	835.968083563308	309.438496892322	346.000351674315	591.201598031147	205.987994295930	342.287871546468	641.857583413918	119.032016174416	299.110790868445	754.734406090401	110.759590343964	340.521794053539	805.105668341740	39.446657344937	368.806515964265	1075.311009675886	743.336815064092	604.970016209288	992.318468119157	660.736945300891	653.168720204640	1075.856897471921	615.842565281418	577.431694851435	1080.092435270175	518.959225971818	602.517871441478	1043.811938289507	419.779530585995	561.416532585504	976.973931716945	345.975681078956	641.016663499574	1034.005870960624	280.519908204030	556.167155087871	922.062886189340	53.364860451378	515.271810466605	998.617869402236	25.061963614749	590.755847049605	1105.186105774740	88.359366976350	569.546048819757	1208.795986232919	43.896349729524	572.470283771220	
37	11.779428571429	1052.705337555172	971.549232140808	585.359737940610	1030.147183469364	956.359473953916	346.449722941632	1106.376445889841	1430.678043109396	495.261654425494	1012.521222498605	1484.155708454312	668.577208985282	979.258933050326	1553.718532548343	489.291154495951	1035.712817577797	1507.935839036922	304.327993012321	933.751077387223	1204.812879861136	162.270190557297	1025.912503495175	930.833568617009	140.641239821767	943.364957564906	1159.160935743636	800.945958774353	1162.941843488069	986.866640732315	722.002160813506	1057.203957849430	736.075482011661	313.247228131286	984.858896772376	667.835528140884	269.804762584280	1066.394746080715	606.193847869998	316.735578064199	1054.049073580847	462.113403536869	305.720897288118	951.557217292045	388.866939671689	331.284068717611	852.438024192433	379.556774463033	258.286033804099	850.146845178894	314.423951263376	344.011520694305	602.722523056273	225.735370426900	338.521024626473	647.141229822335	134.589034985391	296.305690862451	759.087520996879	117.844521901995	339.268224778050	802.447496617420	38.956804303874	367.909745916913	1070.688793176355	741.451763904581	604.861379946140	986.428809287296	660.583404540331	654.761994490286	1067.008477869620	613.856547637339	577.277798664132	1069.912951407053	517.663427683870	602.264719900857	1033.074052899527	419.739838039280	561.890413405150	967.749767520979	345.745233268801	641.994839210984	1024.570168063869	280.698077272241	556.546627788466	914.308249946636	53.120505922422	515.310979457812	990.824821025536	24.861540844529	590.839399928653	1097.349517855725	88.212026919788	569.425729803631	1201.053959807663	43.843630563733	572.372823512714	
38	11.796357142857	1053.415480766383	970.397424135687	586.396966858044	1028.584872632153	955.395086333486	348.764112317824	1108.712844122967	1429.099366828297	496.993428096938	1016.929255084131	1482.635598817965	671.363957665892	981.630411164283	1552.503054010521	492.498543461867	1035.964194419601	1506.777571913554	306.896455157424	931.009342213971	1204.120776994605	166.020472836871	1021.275177206526	929.614495401464	143.571944359083	950.061158117958	1157.828216980216	805.250147900484	1170.994633376163	987.732835900232	725.543974826788	1064.242166924194	739.034374579497	312.974206098719	995.323774608268	668.206193018117	269.654837452041	1080.338052674588	609.940077663193	315.882298842605	1073.069948968109	464.612252350574	305.551983223380	968.663150779773	391.231394897791	330.870280618732	870.494186715406	384.073196453659	256.652249197850	864.898163292187	319.944114003007	342.791511086266	615.641835172570	244.187244776945	335.314538148406	654.783005402704	149.908550702282	293.626367851599	765.490812090963	125.796213723454	338.337643718019	802.481108255993	39.114760269523	366.800666670968	1065.794378423275	739.580745374038	604.630738823585	980.291766286041	660.468818462162	656.286624855330	1057.961208742499	611.980072354564	577.158944469981	1059.602690010352	516.445904512787	602.051587200084	1022.153549622278	419.816965720530	562.386081000908	958.360700171971	345.644541828853	643.012375047879	1015.029007123062	280.993128216256	556.969239455044	906.529687920737	52.932232393267	515.394329945097	983.014200914760	24.698053602185	590.939268338127	1089.492973452564	88.107740970808	569.339877976593	1193.294274168388	43.809391501267	572.275760264516	
39	11.813285714286	1053.544906281367	969.275697683908	587.667156254871	1026.866651853719	954.431620557213	351.053839331102	1110.874416609745	1427.456108996723	498.282622034860	1021.157428279252	1481.011345648123	673.603507366855	983.946670254953	1551.234215582357	495.186936094859	1036.079469493478	1505.608190859321	308.995402321566	928.235541519560	1203.027396867303	169.916716989631	1017.029549086450	928.195457925362	146.361271421594	957.042939197402	1156.437309957903	809.250531196278	1178.665481830094	987.494457698584	729.249914909167	1070.850862081577	742.750982270864	313.616254690328	1005.500676619596	669.302987300401	270.213714507048	1093.636993950420	614.763129256273	316.156739089867	1091.465044913596	468.211563378043	306.369149245781	985.590612090226	394.467572035397	331.283596642180	888.465138743917	388.929425196484	255.783317432954	879.934416995480	325.798608501557	342.388455912245	629.443314621337	260.092405983622	332.999140585487	664.864971368694	163.921528474097	291.263555274701	774.328230010797	134.120692177313	337.704254758989	806.259954110691	40.231825658105	365.399051860427	1060.861699326226	737.849143447370	604.675455953898	974.128344999089	660.395375325817	657.808973326849	1049.274119164066	610.337703796964	577.379967201270	1049.726558241308	515.344808027680	602.139871643099	1011.643020933764	419.976964141330	563.015158156548	949.127242211173	345.676962706949	644.065368277998	1005.712603569930	281.346418818030	557.507336578741	898.739081892384	52.824962128225	515.532163578178	975.197793048109	24.573801786329	591.057544500627	1081.630400414411	88.046040135021	569.319800558354	1185.523833111222	43.809959897662	572.207330640201	
